<?xml version="1.0"?>
<svg version="1.1" xmlns="http://www.w3.org/2000/svg"><path xmlns="" d=" M 98,0 L 294,0 L 392,170 L 294,340 L 98,340 L 0,170 Z" fill="#FFFF00" stroke="#FFFF00" stroke-width="1" stroke-linejoin="round"/><text xmlns="" x="245" y="318" dy="0.3em" fill="#000000" stroke="#000000" text-anchor="middle" font-family="Arial" font-size="17">498</text><circle xmlns="" cx="245" cy="255" r="43" fill="#FFFFFF" stroke="#FFFFFF" stroke-width="12"/><circle xmlns="" cx="147" cy="85" r="43" fill="#FFFFFF" stroke="#FFFFFF" stroke-width="12"/><path xmlns="" d="M 147,85 A 98,98 0 0,0 196,0" fill="none" stroke="#FFFFFF" stroke-width="34" stroke-linecap="butt" stroke-linejoin="round"/><path xmlns="" d="M 49,85 A 98,98 0 0,0 147,85" fill="none" stroke="#FFFFFF" stroke-width="34" stroke-linecap="butt" stroke-linejoin="round"/><path xmlns="" d="M 245,255 A 98,98 0 0,0 196,340" fill="none" stroke="#FFFFFF" stroke-width="34" stroke-linecap="butt" stroke-linejoin="round"/><path xmlns="" d="M 343,255 A 98,98 0 0,0 245,255" fill="none" stroke="#FFFFFF" stroke-width="34" stroke-linecap="butt" stroke-linejoin="round"/><path xmlns="" d="M 147,85 A 98,98 0 0,0 196,0" fill="none" stroke="#000000" stroke-width="26" stroke-linecap="butt" stroke-linejoin="round"/><path xmlns="" d="M 49,85 A 98,98 0 0,0 147,85" fill="none" stroke="#000000" stroke-width="26" stroke-linecap="butt" stroke-linejoin="round"/><path xmlns="" d="M 245,255 A 98,98 0 0,0 196,340" fill="none" stroke="#000000" stroke-width="26" stroke-linecap="butt" stroke-linejoin="round"/><path xmlns="" d="M 343,255 A 98,98 0 0,0 245,255" fill="none" stroke="#000000" stroke-width="26" stroke-linecap="butt" stroke-linejoin="round"/><circle xmlns="" cx="245" cy="255" r="43" fill="#FFFFFF" stroke="#000000" stroke-width="4"/><ellipse xmlns="" rx="13" ry="13" cx="306" cy="107" fill="#FFFFFF" stroke="#000000" stroke-width="2" stroke-linejoin="round"/><text xmlns="" x="306" y="107" dy="0.3em" fill="#000000" stroke="#000000" text-anchor="middle" font-family="Bookman Old Style" font-size="17">30</text><circle xmlns="" cx="147" cy="85" r="43" fill="#FFFFFF" stroke="#000000" stroke-width="4"/><ellipse xmlns="" rx="13" ry="13" cx="86" cy="233" fill="#FFFFFF" stroke="#000000" stroke-width="2" stroke-linejoin="round"/><text xmlns="" x="86" y="233" dy="0.3em" fill="#000000" stroke="#000000" text-anchor="middle" font-family="Bookman Old Style" font-size="17">30</text><text xmlns="" x="49" y="170" dy="0.3em" fill="#000000" stroke="#000000" text-anchor="middle" font-family="TimpaniHeavy" font-size="34">Bu</text><path xmlns="" d=" M 98,0 L 294,0 L 392,170 L 294,340 L 98,340 L 0,170 Z" fill="none" stroke="black" stroke-width="1" stroke-linejoin="round"/></svg>
