<?xml version="1.0"?>
<svg version="1.1" xmlns="http://www.w3.org/2000/svg"><path xmlns="" d=" M 98,0 L 294,0 L 392,170 L 294,340 L 98,340 L 0,170 Z" fill="#808080" stroke="#808080" stroke-width="1" stroke-linejoin="round"/><text xmlns="" x="245" y="318" dy="0.3em" fill="#000000" stroke="#000000" text-anchor="middle" font-family="Arial" font-size="17">496</text><polygon xmlns="" points="153,84 239,84 282,127 282,213 239,256 153,256 110,213 110,127" fill="#FFFFFF" stroke="#FFFFFF" stroke-width="12"/><circle xmlns="" cx="153" cy="127" r="43" fill="#FFFFFF" stroke="#FFFFFF" stroke-width="12"/><circle xmlns="" cx="239" cy="127" r="43" fill="#FFFFFF" stroke="#FFFFFF" stroke-width="12"/><circle xmlns="" cx="239" cy="213" r="43" fill="#FFFFFF" stroke="#FFFFFF" stroke-width="12"/><circle xmlns="" cx="153" cy="213" r="43" fill="#FFFFFF" stroke="#FFFFFF" stroke-width="12"/><path xmlns="" d="M 49,255 L 196,170" fill="none" stroke="#FFFFFF" stroke-width="34" stroke-linecap="butt" stroke-linejoin="round"/><path xmlns="" d="M 196,340 L 196,170" fill="none" stroke="#FFFFFF" stroke-width="34" stroke-linecap="butt" stroke-linejoin="round"/><path xmlns="" d="M 343,255 L 196,170" fill="none" stroke="#FFFFFF" stroke-width="34" stroke-linecap="butt" stroke-linejoin="round"/><path xmlns="" d="M 343,85 L 196,170" fill="none" stroke="#FFFFFF" stroke-width="34" stroke-linecap="butt" stroke-linejoin="round"/><path xmlns="" d="M 196,0 L 196,170" fill="none" stroke="#FFFFFF" stroke-width="34" stroke-linecap="butt" stroke-linejoin="round"/><path xmlns="" d="M 49,85 L 196,170" fill="none" stroke="#FFFFFF" stroke-width="34" stroke-linecap="butt" stroke-linejoin="round"/><path xmlns="" d="M 49,255 L 196,170" fill="none" stroke="#000000" stroke-width="26" stroke-linecap="butt" stroke-linejoin="round"/><path xmlns="" d="M 196,340 L 196,170" fill="none" stroke="#000000" stroke-width="26" stroke-linecap="butt" stroke-linejoin="round"/><path xmlns="" d="M 343,255 L 196,170" fill="none" stroke="#000000" stroke-width="26" stroke-linecap="butt" stroke-linejoin="round"/><path xmlns="" d="M 343,85 L 196,170" fill="none" stroke="#000000" stroke-width="26" stroke-linecap="butt" stroke-linejoin="round"/><path xmlns="" d="M 196,0 L 196,170" fill="none" stroke="#000000" stroke-width="26" stroke-linecap="butt" stroke-linejoin="round"/><path xmlns="" d="M 49,85 L 196,170" fill="none" stroke="#000000" stroke-width="26" stroke-linecap="butt" stroke-linejoin="round"/><polygon xmlns="" points="153,84 239,84 282,127 282,213 239,256 153,256 110,213 110,127" fill="#FFFFFF" stroke="#000000" stroke-width="4"/><circle xmlns="" cx="153" cy="127" r="43" fill="#FFFFFF" stroke="#000000" stroke-width="4"/><circle xmlns="" cx="239" cy="127" r="43" fill="#FFFFFF" stroke="#000000" stroke-width="4"/><circle xmlns="" cx="239" cy="213" r="43" fill="#FFFFFF" stroke="#000000" stroke-width="4"/><circle xmlns="" cx="153" cy="213" r="43" fill="#FFFFFF" stroke="#000000" stroke-width="4"/><ellipse xmlns="" rx="13" ry="13" cx="49" cy="170" fill="#FFFFFF" stroke="#000000" stroke-width="2" stroke-linejoin="round"/><text xmlns="" x="49" y="170" dy="0.3em" fill="#000000" stroke="#000000" text-anchor="middle" font-family="Bookman Old Style" font-size="17">80</text><text xmlns="" x="343" y="170" dy="0.3em" fill="#000000" stroke="#000000" text-anchor="middle" font-family="TimpaniHeavy" font-size="34">W</text><path xmlns="" d=" M 98,0 L 294,0 L 392,170 L 294,340 L 98,340 L 0,170 Z" fill="none" stroke="black" stroke-width="1" stroke-linejoin="round"/></svg>
