<?xml version="1.0" encoding="UTF-8" standalone="no"?>
<svg
   xmlns:dc="http://purl.org/dc/elements/1.1/"
   xmlns:cc="http://creativecommons.org/ns#"
   xmlns:rdf="http://www.w3.org/1999/02/22-rdf-syntax-ns#"
   xmlns:svg="http://www.w3.org/2000/svg"
   xmlns="http://www.w3.org/2000/svg"
   xmlns:sodipodi="http://sodipodi.sourceforge.net/DTD/sodipodi-0.dtd"
   xmlns:inkscape="http://www.inkscape.org/namespaces/inkscape"
   version="1.1"
   id="svg2"
   inkscape:version="0.48.4 r9939"
   width="100%"
   height="100%"
   sodipodi:docname="tile-24904.svg">
  <metadata
     id="metadata24">
    <rdf:RDF>
      <cc:Work
         rdf:about="">
        <dc:format>image/svg+xml</dc:format>
        <dc:type
           rdf:resource="http://purl.org/dc/dcmitype/StillImage" />
        <dc:title></dc:title>
      </cc:Work>
    </rdf:RDF>
  </metadata>
  <defs
     id="defs22" />
  <sodipodi:namedview
     pagecolor="#ffffff"
     bordercolor="#666666"
     borderopacity="1"
     objecttolerance="10"
     gridtolerance="10"
     guidetolerance="10"
     inkscape:pageopacity="0"
     inkscape:pageshadow="2"
     inkscape:window-width="1615"
     inkscape:window-height="1026"
     id="namedview20"
     showgrid="false"
     inkscape:zoom="0.80485598"
     inkscape:cx="372.04724"
     inkscape:cy="526.18109"
     inkscape:window-x="65"
     inkscape:window-y="24"
     inkscape:window-maximized="1"
     inkscape:current-layer="svg2" />
  <path
     style="fill:#c0c0c0;stroke:#c0c0c0;stroke-width:1;stroke-linejoin:round"
     inkscape:connector-curvature="0"
     d="M 294,0 98,0 0,170 l 98,170 196,0 98,-170 z"
     id="path4" />
  <path
     style="fill:none;stroke:#000000;stroke-width:1;stroke-linejoin:round"
     inkscape:connector-curvature="0"
     d="M 294,0 98,0 0,170 l 98,170 196,0 98,-170 z"
     id="path18" />
  <path
     inkscape:connector-curvature="0"
     d="M 356.10455,109.83186 243.61178,145.57237 331.5928,67.41888"
     style="fill:#000000;fill-opacity:1;fill-rule:nonzero;stroke:#ffffff;stroke-width:4.50926638;stroke-linecap:butt;stroke-linejoin:bevel;stroke-miterlimit:4;stroke-opacity:1;stroke-dasharray:none"
     id="path2565" />
  <path
     inkscape:connector-curvature="0"
     d="m 170.38029,335.9182 26.67967,-114.97917 22.30369,115.5473"
     style="fill:#000000;fill-opacity:1;fill-rule:nonzero;stroke:#ffffff;stroke-width:4.50926638;stroke-linecap:butt;stroke-linejoin:bevel;stroke-miterlimit:4;stroke-opacity:1;stroke-dasharray:none"
     id="path2565-3" />
  <g
     transform="matrix(0,-0.54579162,0.6188979,0,-210.2434,310.54866)"
     id="g3793">
    <path
       inkscape:connector-curvature="0"
       id="path2985"
       d="m 208.73299,601.34982 119.276,-155.30729"
       style="fill:none;stroke:#000000;stroke-width:5;stroke-linecap:butt;stroke-linejoin:miter;stroke-miterlimit:4;stroke-opacity:1;stroke-dasharray:none" />
    <path
       inkscape:connector-curvature="0"
       id="path2987"
       d="M 325.52408,598.8649 213.70283,442.31516"
       style="fill:none;stroke:#000000;stroke-width:5;stroke-linecap:butt;stroke-linejoin:miter;stroke-miterlimit:4;stroke-opacity:1;stroke-dasharray:none" />
    <path
       inkscape:connector-curvature="0"
       id="path3759"
       d="m 298.18999,421.19336 68.33521,55.91063 -50.94079,-67.09275 z"
       style="fill:none;stroke:#000000;stroke-width:2.29999995;stroke-linecap:butt;stroke-linejoin:miter;stroke-miterlimit:4;stroke-opacity:1;stroke-dasharray:none" />
    <path
       inkscape:connector-curvature="0"
       id="path3759-9"
       d="m 228.61234,405.66264 -55.91063,68.33521 67.09275,-50.94079 z"
       style="fill:none;stroke:#000000;stroke-width:2.29999995;stroke-linecap:butt;stroke-linejoin:miter;stroke-miterlimit:4;stroke-opacity:1;stroke-dasharray:none" />
    <path
       inkscape:connector-curvature="0"
       id="path3789"
       d="m 187.09852,459.90499 c 0.24401,-0.60493 9.66371,-12.35633 20.93266,-26.11424 l 20.489,-25.01437 4.02149,6.45698 c 2.21182,3.55134 4.03412,6.78495 4.04955,7.1858 0.0154,0.40084 -11.21393,9.24661 -24.95415,19.65725 -13.74022,10.41064 -24.78257,18.4335 -24.53855,17.82858 z"
       style="fill:#000000;fill-opacity:1;stroke:#ffffff;stroke-width:2.85765409;stroke-miterlimit:4;stroke-dasharray:none" />
    <path
       inkscape:connector-curvature="0"
       id="path3791"
       d="m 326.13853,441.68093 c -12.60778,-10.44774 -23.09215,-19.50263 -23.2986,-20.12199 -0.37619,-1.12857 9.93769,-7.94457 12.02161,-7.94457 0.94936,0 34.69675,43.52181 35.85683,46.24222 1.16544,2.73298 -3.6071,-0.7961 -24.57984,-18.17566 l 0,0 z"
       style="fill:#000000;fill-opacity:1;stroke:#ffffff;stroke-width:2.85765409;stroke-miterlimit:4;stroke-dasharray:none" />
  </g>
  <text
     x="-281.29889"
     y="139.49969"
     font-size="34"
     id="text4680-0"
     style="font-size:34px;text-align:center;line-height:125%;writing-mode:lr-tb;text-anchor:middle;fill:#000000;stroke:#000000;font-family:TimpaniHeavy"
     sodipodi:linespacing="125%"
     inkscape:transform-center-y="47.245092"
     transform="matrix(0,-1,1,0,0,0)">
    <tspan
       sodipodi:role="line"
       id="tspan3994"
       x="-281.29889"
       y="139.49969">20/60</tspan>
  </text>
  <rect
     style="fill:#ffffff;fill-opacity:1;stroke:#ffffff;stroke-width:2.29999995;stroke-miterlimit:4;stroke-dasharray:none"
     id="rect3956"
     width="74.25766"
     height="59.406128"
     x="-194.92104"
     y="87.477386"
     transform="matrix(0,-1,1,0,0,0)" />
  <g
     id="g3972"
     transform="matrix(0,-1,1,0,-39.020178,-126.03707)">
    <path
       d="m -252.47603,156.20064 c 0,15.49318 -13.85262,28.05289 -30.94069,28.05289 -17.08807,0 -30.94069,-12.55971 -30.94069,-28.05289 0,-15.49319 13.85262,-28.05289 30.94069,-28.05289 17.08807,0 30.94069,12.5597 30.94069,28.05289 z"
       sodipodi:ry="28.052893"
       sodipodi:rx="30.940691"
       sodipodi:cy="156.20064"
       sodipodi:cx="-283.41672"
       id="path3968"
       style="fill:#000000;fill-opacity:1;stroke:#ffffff;stroke-width:2.29999995;stroke-miterlimit:4;stroke-dasharray:none"
       sodipodi:type="arc" />
    <path
       transform="matrix(2.5572017,0,0,2.4461654,424.45771,-240.02)"
       d="m -267.32756,161.97623 c 0,5.0125 -4.24814,9.07593 -9.48848,9.07593 -5.24034,0 -9.48848,-4.06343 -9.48848,-9.07593 0,-5.0125 4.24814,-9.07594 9.48848,-9.07594 5.24034,0 9.48848,4.06344 9.48848,9.07594 z"
       sodipodi:ry="9.0759363"
       sodipodi:rx="9.4884787"
       sodipodi:cy="161.97623"
       sodipodi:cx="-276.81604"
       id="path3970"
       style="fill:#ffffff;fill-opacity:1;stroke:#ffffff;stroke-width:2.29999995;stroke-miterlimit:4;stroke-dasharray:none"
       sodipodi:type="arc" />
  </g>
  <text
     x="-159.36768"
     y="131.17464"
     font-size="34"
     id="text4680-7"
     style="font-size:34px;text-anchor:middle;fill:#000000;stroke:#000000;font-family:TimpaniHeavy;text-align:center;writing-mode:lr;line-height:125%"
     transform="matrix(0,-1,1,0,0,0)"
     sodipodi:linespacing="125%">
    <tspan
       sodipodi:role="line"
       id="tspan3123">3</tspan>
  </text>
</svg>
