<?xml version="1.0"?>
<svg version="1.1" xmlns="http://www.w3.org/2000/svg"><path xmlns="" d=" M 98,0 L 294,0 L 392,170 L 294,340 L 98,340 L 0,170 Z" fill="#B46301" stroke="#B46301" stroke-width="1" stroke-linejoin="round"/><text xmlns="" x="245" y="318" dy="0.3em" fill="#000000" stroke="#000000" text-anchor="middle" font-family="Arial" font-size="17">493</text><polygon xmlns="" points="43,132 86,57 160,56 203,131 166,196 80,196" fill="#FFFFFF" stroke="#FFFFFF" stroke-width="12"/><circle xmlns="" cx="80" cy="153" r="43" fill="#FFFFFF" stroke="#FFFFFF" stroke-width="12"/><circle xmlns="" cx="123" cy="78" r="43" fill="#FFFFFF" stroke="#FFFFFF" stroke-width="12"/><circle xmlns="" cx="166" cy="153" r="43" fill="#FFFFFF" stroke="#FFFFFF" stroke-width="12"/><circle xmlns="" cx="245" cy="255" r="43" fill="#FFFFFF" stroke="#FFFFFF" stroke-width="12"/><path xmlns="" d="M 245,255 A 98,98 0 0,0 196,340" fill="none" stroke="#FFFFFF" stroke-width="34" stroke-linecap="butt" stroke-linejoin="round"/><path xmlns="" d="M 343,255 A 98,98 0 0,0 245,255" fill="none" stroke="#FFFFFF" stroke-width="34" stroke-linecap="butt" stroke-linejoin="round"/><path xmlns="" d="M 49,255 L 196,170" fill="none" stroke="#FFFFFF" stroke-width="34" stroke-linecap="butt" stroke-linejoin="round"/><path xmlns="" d="M 343,85 L 196,170" fill="none" stroke="#FFFFFF" stroke-width="34" stroke-linecap="butt" stroke-linejoin="round"/><path xmlns="" d="M 49,85 A 98,98 0 0,0 147,85" fill="none" stroke="#FFFFFF" stroke-width="34" stroke-linecap="butt" stroke-linejoin="round"/><path xmlns="" d="M 147,85 A 98,98 0 0,0 196,0" fill="none" stroke="#FFFFFF" stroke-width="34" stroke-linecap="butt" stroke-linejoin="round"/><path xmlns="" d="M 245,255 A 98,98 0 0,0 196,340" fill="none" stroke="#000000" stroke-width="26" stroke-linecap="butt" stroke-linejoin="round"/><path xmlns="" d="M 343,255 A 98,98 0 0,0 245,255" fill="none" stroke="#000000" stroke-width="26" stroke-linecap="butt" stroke-linejoin="round"/><path xmlns="" d="M 49,255 L 196,170" fill="none" stroke="#000000" stroke-width="26" stroke-linecap="butt" stroke-linejoin="round"/><path xmlns="" d="M 343,85 L 196,170" fill="none" stroke="#000000" stroke-width="26" stroke-linecap="butt" stroke-linejoin="round"/><path xmlns="" d="M 49,85 A 98,98 0 0,0 147,85" fill="none" stroke="#000000" stroke-width="26" stroke-linecap="butt" stroke-linejoin="round"/><path xmlns="" d="M 147,85 A 98,98 0 0,0 196,0" fill="none" stroke="#000000" stroke-width="26" stroke-linecap="butt" stroke-linejoin="round"/><polygon xmlns="" points="43,132 86,57 160,56 203,131 166,196 80,196" fill="#FFFFFF" stroke="#000000" stroke-width="4"/><circle xmlns="" cx="80" cy="153" r="43" fill="#FFFFFF" stroke="#000000" stroke-width="4"/><circle xmlns="" cx="123" cy="78" r="43" fill="#FFFFFF" stroke="#000000" stroke-width="4"/><circle xmlns="" cx="166" cy="153" r="43" fill="#FFFFFF" stroke="#000000" stroke-width="4"/><ellipse xmlns="" rx="13" ry="13" cx="269" cy="43" fill="#FFFFFF" stroke="#000000" stroke-width="2" stroke-linejoin="round"/><text xmlns="" x="269" y="43" dy="0.3em" fill="#000000" stroke="#000000" text-anchor="middle" font-family="Bookman Old Style" font-size="17">70</text><circle xmlns="" cx="245" cy="255" r="43" fill="#FFFFFF" stroke="#000000" stroke-width="4"/><ellipse xmlns="" rx="13" ry="13" cx="269" cy="43" fill="#FFFFFF" stroke="#000000" stroke-width="2" stroke-linejoin="round"/><text xmlns="" x="269" y="43" dy="0.3em" fill="#000000" stroke="#000000" text-anchor="middle" font-family="Bookman Old Style" font-size="17">70</text><text xmlns="" x="343" y="170" dy="0.3em" fill="#000000" stroke="#000000" text-anchor="middle" font-family="TimpaniHeavy" font-size="34">W</text><path xmlns="" d=" M 98,0 L 294,0 L 392,170 L 294,340 L 98,340 L 0,170 Z" fill="none" stroke="black" stroke-width="1" stroke-linejoin="round"/></svg>
